# xmcd CD database file
#
# Track frame offsets:
#	150
#	11557
#	23898
#	36631
#	48096
#	59948
#	73327
#	87382
#	101643
#	116941
#	128608
#	143239
#	156358
#	170182
#	183439
#	197802
#	211504
#	225758
#	238465
#	252608
#
# Disc length: 3557 seconds
#
# Revision: 10
# Processed by: cddbd v1.5.2PL0 Copyright (c) Steve Scherf et al.
# Submitted via: CDex 1.51
#
DISCID=310de314
DTITLE=Louis Armstrong - it's Louis Armstrong - Vol.1
DYEAR=2005
DGENRE=Jazz
TTITLE0=My Heart
TTITLE1=Yes! I'm In The Barrel
TTITLE2=Gut Bucket Blues
TTITLE3=Come Back, Sweet Papa
TTITLE4=Georgia Grind
TTITLE5=Heebie Jeebies
TTITLE6=Corner Shop Suey
TTITLE7=Oriental Strut
TTITLE8=You're Next
TTITLE9=Muskrat Ramble
TTITLE10=Don't Forget To Mess Around
TTITLE11=I'm Gonna Gitcha
TTITLE12=Dropping Shucks
TTITLE13=Who's It
TTITLE14=The King Of The Zulu's
TTITLE15=Big Fat Ma And Skinny Pa
TTITLE16=Lonesome Blues
TTITLE17=Sweet Little Papa
TTITLE18=Jazz Lips
TTITLE19=Skid-Dat-De-Dat
EXTD=
EXTT0=
EXTT1=
EXTT2=
EXTT3=
EXTT4=
EXTT5=
EXTT6=
EXTT7=
EXTT8=
EXTT9=
EXTT10=
EXTT11=
EXTT12=
EXTT13=
EXTT14=
EXTT15=
EXTT16=
EXTT17=
EXTT18=
EXTT19=
PLAYORDER=
